<svg version="1.2" xmlns="http://www.w3.org/2000/svg" viewBox="0 0 100 100" width="100" height="100">
	<title>Новий проєкт</title>
	<style>
		.s0 { fill: #000000 } 
		.s1 { fill: #13a10e } 
		.s2 { fill: #bad80a } 
		.s3 { fill: #f03a17 } 
	</style>
	<g id="g20566">
		<g id="g9656">
			<path id="path9646" class="s0" d="m52.7 98.5c-6.9 0-13.5-1.3-19.7-3.8-6.3-2.6-11.9-6.4-16.8-11.3-2.5-2.5-4.6-5.1-6.5-7.9-1.9-2.9-3.5-5.8-4.8-9-1.3-3.1-2.3-6.3-2.9-9.6-0.7-3.3-1-6.7-1-10.1 0-3.5 0.3-6.9 1-10.2 0.6-3.4 1.6-6.6 2.9-9.7 1.3-3.1 2.9-6 4.8-8.9 1.9-2.8 4-5.5 6.5-7.9l9.2-9.1 73.1 73.2-9.1 9.2c-5 4.9-10.5 8.7-16.9 11.3-6.2 2.5-12.8 3.8-19.8 3.8z"/>
			<path id="path9648" class="s1" d="m85 79.1c-2.1 2.3-4.6 4.2-7.1 5.9-2.6 1.7-5.2 3.1-8 4.2-2.7 1.1-5.5 1.9-8.4 2.5-2.9 0.5-5.8 0.8-8.8 0.8-2.9 0-5.8-0.3-8.6-0.8-3-0.6-5.8-1.4-8.5-2.5-2.8-1.1-5.4-2.5-8-4.2-2.6-1.7-5-3.6-7.2-5.9-2.2-2.2-4.2-4.6-5.9-7.2-1.6-2.5-3-5.2-4.1-7.9-1.2-2.7-1.9-5.5-2.5-8.5-0.6-2.8-0.8-5.7-0.8-8.7 0-2.9 0.2-5.8 0.8-8.7 0.6-2.9 1.3-5.8 2.5-8.4 1.1-2.8 2.5-5.5 4.1-8 1.8-2.6 3.7-5 5.9-7.2l4.4-4.3 4.3 4.3 19.2 36.1 32.4 15.6 8.7 8.6z"/>
			<path id="path9650" class="s2" d="m80.7 74.8c-1.9 1.9-3.9 3.6-6.2 5.1-2.1 1.4-4.5 2.6-6.8 3.6-2.5 1-4.9 1.7-7.4 2.2-2.4 0.5-5 0.7-7.6 0.7q-3.7 0-7.5-0.7c-2.5-0.5-5-1.2-7.3-2.2-2.4-1-4.7-2.2-6.9-3.6-2.2-1.5-4.3-3.2-6.3-5.1-1.9-1.9-3.6-4-5-6.2-1.5-2.2-2.7-4.5-3.7-6.9-0.9-2.4-1.6-4.8-2.2-7.3-0.4-2.5-0.6-5-0.6-7.6 0-2.6 0.2-5.1 0.6-7.5 0.6-2.5 1.3-5 2.3-7.4 1-2.3 2.2-4.7 3.6-6.9 1.4-2.2 3.1-4.3 5.1-6.2l4.2-4.3 4.5 4.3 14.9 31.3 32.3 16.1 4.3 4.3z"/>
			<path id="path9652" class="s3" d="m76.4 70.5c-3.3 3.3-7 5.8-11.1 7.3-4 1.7-8.2 2.5-12.6 2.5-4.2 0-8.5-0.8-12.5-2.5-4.1-1.5-7.9-4-11.2-7.3-3.3-3.3-5.7-7-7.2-11.1-1.7-4.1-2.6-8.3-2.6-12.6 0-4.3 0.9-8.5 2.6-12.6 1.5-4.1 3.9-7.8 7.2-11.1l4.4-4.3 47.3 47.4z"/>
			<path id="path9654" class="s0" d="m34.5 62c0.9 0 1.6 0.3 2.2 0.9 0.5 0.6 0.9 1.3 0.9 2.1 0 0.9-0.4 1.5-0.9 2.2-0.6 0.6-1.3 0.8-2.2 0.8-0.9 0-1.5-0.2-2.2-0.8-0.6-0.7-0.8-1.3-0.8-2.2 0-0.8 0.2-1.5 0.8-2.1 0.7-0.6 1.3-0.9 2.2-0.9zm18.2-18.3c0.9 0 1.6 0.3 2.2 0.9 0.6 0.6 0.9 1.3 0.9 2.2 0 0.8-0.3 1.5-0.9 2.1-0.6 0.6-1.3 0.9-2.2 0.9-0.8 0-1.5-0.3-2.1-0.9-0.6-0.6-0.9-1.3-0.9-2.1 0-0.9 0.3-1.6 0.9-2.2 0.6-0.6 1.3-0.9 2.1-0.9zm18.4 18.3c0.7 0 1.5 0.3 2.1 0.9 0.6 0.6 0.9 1.3 0.9 2.1 0 0.9-0.3 1.5-0.9 2.2-0.6 0.6-1.4 0.8-2.1 0.8-0.9 0-1.6-0.2-2.2-0.8-0.6-0.7-1-1.3-1-2.2 0-0.8 0.4-1.5 1-2.1 0.6-0.6 1.3-0.9 2.2-0.9zm-18.4 0c0.9 0 1.6 0.3 2.2 0.9 0.6 0.6 0.9 1.3 0.9 2.1 0 0.9-0.3 1.5-0.9 2.2-0.6 0.6-1.3 0.8-2.2 0.8-0.8 0-1.5-0.2-2.1-0.8-0.6-0.7-0.9-1.3-0.9-2.2 0-0.8 0.3-1.5 0.9-2.1 0.6-0.6 1.3-0.9 2.1-0.9zm-18.2-18.3c0.9 0 1.6 0.3 2.2 0.9 0.5 0.6 0.9 1.3 0.9 2.2 0 0.8-0.4 1.5-0.9 2.1-0.6 0.6-1.3 0.9-2.2 0.9-0.9 0-1.5-0.3-2.2-0.9-0.6-0.6-0.8-1.3-0.8-2.1 0-0.9 0.2-1.6 0.8-2.2 0.7-0.6 1.3-0.9 2.2-0.9zm0-15.3c0.9 0 1.6 0.4 2.2 1 0.5 0.5 0.9 1.3 0.9 2.1 0 0.8-0.4 1.6-0.9 2.1-0.6 0.7-1.3 1-2.2 1-0.9 0-1.5-0.3-2.2-1-0.6-0.5-0.8-1.3-0.8-2.1 0-0.8 0.2-1.6 0.8-2.1 0.7-0.6 1.3-1 2.2-1z"/>
		</g>
	</g>
</svg>